<?xml version="1.0" encoding="UTF-8" standalone="no"?>
<!-- Created with Inkscape (http://www.inkscape.org/) -->

<svg
   width="63.999996"
   height="63.999996"
   viewBox="0 0 16.933332 16.933332"
   version="1.1"
   id="svg5"
   inkscape:version="1.2.1 (9c6d41e, 2022-07-14)"
   sodipodi:docname="fast-ball.svg"
   xml:space="preserve"
   xmlns:inkscape="http://www.inkscape.org/namespaces/inkscape"
   xmlns:sodipodi="http://sodipodi.sourceforge.net/DTD/sodipodi-0.dtd"
   xmlns="http://www.w3.org/2000/svg"
   xmlns:svg="http://www.w3.org/2000/svg"><sodipodi:namedview
     id="namedview7"
     pagecolor="#ffffff"
     bordercolor="#999999"
     borderopacity="1"
     inkscape:showpageshadow="0"
     inkscape:pageopacity="0"
     inkscape:pagecheckerboard="0"
     inkscape:deskcolor="#d1d1d1"
     inkscape:document-units="px"
     showgrid="false"
     inkscape:zoom="2.3786088"
     inkscape:cx="-11.56138"
     inkscape:cy="29.21876"
     inkscape:window-width="1512"
     inkscape:window-height="843"
     inkscape:window-x="0"
     inkscape:window-y="38"
     inkscape:window-maximized="1"
     inkscape:current-layer="layer1" /><defs
     id="defs2" /><g
     inkscape:label="Layer 1"
     inkscape:groupmode="layer"
     id="layer1"
     transform="translate(-64.995049,-33.93982)"><circle
       style="fill:#212529;stroke:none;stroke-width:1.28889;stroke-linejoin:bevel;stroke-dasharray:1.28889, 7.7333;fill-opacity:1"
       id="path840"
       cx="73.461716"
       cy="42.406487"
       r="8.4666662" /><circle
       style="fill:#12b886;fill-opacity:1;stroke:none;stroke-width:1.04723;stroke-linejoin:bevel;stroke-dasharray:1.04723, 6.28331"
       id="circle844"
       cx="73.461716"
       cy="42.406487"
       r="6.8791666" /><g
       id="g8252"
       transform="translate(-1.4360509)"><path
         d="m 75.318451,42.052821 c 0.195622,0.195602 0.195622,0.513283 0,0.708895 l -3.004589,3.004591 c -0.195602,0.195601 -0.513285,0.195601 -0.708897,0 -0.195602,-0.195624 -0.195602,-0.513285 0,-0.708898 l 2.650925,-2.650925 -2.649359,-2.650925 c -0.195623,-0.195602 -0.195623,-0.513282 0,-0.708894 0.195602,-0.195603 0.513284,-0.195603 0.708894,0 l 3.004591,3.004591 z"
         id="path7862"
         style="fill:#212529;fill-opacity:1;stroke:#212529;stroke-width:0.455343;stroke-dasharray:none;stroke-opacity:1" /><path
         d="m 79.248885,42.052821 c 0.195622,0.195602 0.195622,0.513283 0,0.708895 l -3.004589,3.004591 c -0.195602,0.195601 -0.513285,0.195601 -0.708897,0 -0.195602,-0.195624 -0.195602,-0.513285 0,-0.708898 l 2.650925,-2.650925 -2.649359,-2.650925 c -0.195623,-0.195602 -0.195623,-0.513282 0,-0.708894 0.195602,-0.195603 0.513284,-0.195603 0.708894,0 l 3.004591,3.004591 z"
         id="path8248"
         style="fill:#212529;fill-opacity:1;stroke:#212529;stroke-width:0.455343;stroke-dasharray:none;stroke-opacity:1" /></g></g></svg>
